<svg xmlns="http://www.w3.org/2000/svg" viewBox="0 0 512 512" fill="none">
  <path d="M256 32 L480 480 L320 480 C320 480 280 300 256 250 C 230 300 190 480 190 480 L 32 480 L 256 32 Z" fill="#2E9CC9"/>
  <path d="M256 32 L 420 400 C 420 400 350 480 256 480 C 160 480 120 400 120 400 L 256 32" fill="#3098C6"/>
  
  <!-- Improved approximate shape based on the "A" triangle image -->
  <!-- Main Blue Triangle Shape -->
  <path d="M256 20 L 460 492 H 340 L 256 20 Z" fill="#2997D6"/> 
  <path d="M256 20 L 160 240 C 120 340 160 460 280 480 L 340 492 H 140 L 256 20 Z" fill="#2997D6"/>
  
  <!-- White Swoosh/Cutout to form the A crossbar dynamic feel -->
  <path d="M180 280 Q 220 440 380 440 L 360 492 H 150 L 180 280 Z" fill="white" opacity="0"/> 
  <!-- Actually, let's try a single path for the specific shape: A solid blue shape with a white swoosh -->
  
  <!-- Background reset -->
  <rect width="512" height="512" fill="none"/>
  
  <!-- The Logo Shape: A stylized A composed of two blue strokes or a shape with negative space -->
  <path d="M256 40 L 440 460 L 350 460 L 280 280 L 256 220 L 230 280 L 160 460 L 80 460 L 256 40 Z" fill="#2CA4D6" />
  
  <!-- The white swoosh -->
  <path d="M150 460 Q 300 460 320 310 L 350 460 L 150 460" fill="white"/>
  
  <!-- Final Attempt at the specific geometry from the image -->
  <!-- Left leg is curved, Right leg is straightish, joined at top -->
  <path d="M245 40 L 420 470 L 320 470 L 260 290 C 260 290 200 450 140 450 C 110 450 160 300 245 40" fill="#2997D6"/>
  <!-- The white negative space -->
  <path d="M160 430 Q 280 450 300 280 L 245 100 L 160 430" fill="white" opacity="0.9"/>
  
  <!-- Clean version -->
  <path d="M256 30 L 456 480 H 346 L 256 230 L 196 380 Q 220 450 346 480 H 136 L 256 30" fill="#2CA4D6" fill-rule="evenodd"/>
</svg>
